<?xml version="1.0" encoding="utf-8"?>
<!-- Generator: Adobe Illustrator 26.0.0, SVG Export Plug-In . SVG Version: 6.00 Build 0)  -->
<svg version="1.1" id="Layer_1" xmlns="http://www.w3.org/2000/svg" xmlns:xlink="http://www.w3.org/1999/xlink" x="0px" y="0px"
	 viewBox="0 0 595.28 366" style="enable-background:new 0 0 595.28 366;" xml:space="preserve">
<style type="text/css">
	.st0{fill:rgb(40,40,40);}
	.st1{opacity:0.6;fill:none;stroke:rgb(40,40,40);stroke-width:2;stroke-miterlimit:10;}
</style>
<path class="st0" d="M386.5,141h-195c-20.16,0-36.5-16.34-36.5-36.5v-5c0-20.16,16.34-36.5,36.5-36.5h195
	c20.16,0,36.5,16.34,36.5,36.5v5C423,124.66,406.66,141,386.5,141z"/>
<path class="st0" d="M493,277.95H353c-20.16,0-36.5-16.34-36.5-36.5v-5c0-20.16,16.34-36.5,36.5-36.5h140
	c20.16,0,36.5,16.34,36.5,36.5v5C529.5,261.6,513.16,277.95,493,277.95z"/>
<path class="st0" d="M225,277.95H85c-20.16,0-36.5-16.34-36.5-36.5v-5c0-20.16,16.34-36.5,36.5-36.5h140
	c20.16,0,36.5,16.34,36.5,36.5v5C261.5,261.6,245.16,277.95,225,277.95z"/>
<path class="st1" d="M423,204v-28c0-4.97-4.03-9-9-9H294v-26v26H164c-4.97,0-9,4.03-9,9v28"/>
</svg>
