<?xml version="1.0" encoding="utf-8"?>
<!-- Generator: Adobe Illustrator 26.0.0, SVG Export Plug-In . SVG Version: 6.00 Build 0)  -->
<svg version="1.1" id="Layer_1" xmlns="http://www.w3.org/2000/svg" xmlns:xlink="http://www.w3.org/1999/xlink" x="0px" y="0px"
	 viewBox="0 0 500 500" style="enable-background:new 0 0 500 500;" xml:space="preserve">
<style type="text/css">
	.st0{fill:rgba(20,20,20,1);}
</style>
<path class="st0" d="M451.26,144.52c0-3.58-1.92-6.88-5.01-8.66L254.74,25.59c-3.1-1.78-6.91-1.78-10.01,0.01L53.47,136.32
	c-3.09,1.79-5,5.1-4.99,8.67l0.26,220.99c0,3.58,1.92,6.88,5.01,8.66l191.51,110.27c3.1,1.78,6.91,1.78,10.01-0.01l191.26-110.72
	c3.09-1.79,5-5.1,4.99-8.67L451.26,144.52z M371.88,332.43c0,2.42-1.3,4.66-3.41,5.86l-31.32,17.85c-4.5,2.57-10.09-0.69-10.09-5.87
	l0.03-113.2c0-5.36-5.95-8.59-10.44-5.65L250,274.99l-66.65-43.55c-4.49-2.93-10.44,0.29-10.44,5.65l0.03,113.2
	c0,5.18-5.59,8.43-10.09,5.87l-31.32-17.85c-2.11-1.2-3.41-3.44-3.41-5.86V185.22c0-2.41,1.29-4.64,3.38-5.85l25.44-14.67
	c2.15-1.24,4.82-1.2,6.93,0.11L250,218.13l86.13-53.31c2.11-1.31,4.78-1.35,6.93-0.11l25.44,14.67c2.09,1.21,3.38,3.43,3.38,5.85
	V332.43z"/>
</svg>
